<svg fill="currentColor"  viewBox="0 0 1500 1501" xmlns="http://www.w3.org/2000/svg" xml:space="preserve" style="fill-rule:evenodd;clip-rule:evenodd;stroke-linejoin:round;stroke-miterlimit:2">
  <path
    d="M52.263 10.647C47.089 4.699 39.917 1.123 32.056.573 15.833-.562 1.709 11.716.572 27.941-.561 44.167 11.718 58.293 27.939 59.427c16.222 1.14 30.344-11.143 31.487-27.37.548-7.86-1.994-15.463-7.163-21.41Zm-3.859 3.355c4.273 4.916 6.374 11.201 5.921 17.698-.946 13.413-12.618 23.569-26.028 22.626-13.411-.937-23.56-12.615-22.624-26.028.94-13.413 12.615-23.562 26.026-22.624 6.499.455 12.428 3.411 16.705 8.328Z"
    transform="translate(-12.699 -12.718) scale(25.4238)" />
  <path d="M363.062 472.121h666.47V957.48h-666.47z"
    transform="rotate(135 677.221 452.957) scale(1.20035 .26784)" />
  <path d="M363.062 472.121h666.47V957.48h-666.47z"
    transform="rotate(45 118.676 367.154) scale(1.20035 .26784)" /></svg>
