<svg fill="currentColor" viewBox="0 0 1500 1501" xmlns="http://www.w3.org/2000/svg" xml:space="preserve"><path d="M52.263 10.647C47.089 4.699 39.917 1.123 32.056.573 15.833-.562 1.709 11.716.572 27.941-.561 44.167 11.718 58.293 27.939 59.427c16.222 1.14 30.344-11.143 31.487-27.37.548-7.86-1.994-15.463-7.163-21.41ZM5.757 28.304c.935-13.368 12.571-23.483 25.938-22.55a24.148 24.148 0 0 1 11.741 4.011c-1.188.495-2.426.769-3.713.769-2.941 0-5.892-1.869-11.068-1.869-8.697 0-14.52 4.889-14.52 12.295 0 5.175 2.804 8.698 8.267 10.28-3.883 1.222-6.902 2.658-6.902 6.255 0 3.596 2.158 5.536 11.933 5.536 6.761 0 10.064 1.078 10.064 5.032 0 3.276-2.774 6.153-8.021 6.201-.392-.007-.779.006-1.174-.023-13.364-.933-23.48-12.57-22.545-25.937Zm29.083-7.418c0 4.029-2.157 6.186-6.254 6.186-3.882 0-6.256-1.941-6.256-6.11 0-4.1 2.23-6.329 6.256-6.329 4.17-.001 6.254 2.157 6.254 6.253Zm19.401 10.808c-.477 6.812-3.741 12.769-8.589 16.861.014-.26.042-.51.042-.779 0-7.403-6.254-10.35-12.076-10.35-8.555 0-9.059-.146-9.059-1.514 0-1.149 2.3-2.516 4.888-3.45 8.555 0 13.804-4.815 13.804-11.145 0-3.952-2.376-6.399-2.376-6.399s1.081.432 2.809.432c1.789 0 3.269-.352 4.724-1.214 3.832 4.45 5.892 10.008 5.892 15.825.002.578-.018 1.156-.059 1.733Z" transform="translate(-12.699 -12.718) scale(25.4238)" /></svg>
